<?xml version="1.0" encoding="utf-8"?>
<!-- Generator: Adobe Illustrator 12.0.0, SVG Export Plug-In . SVG Version: 6.00 Build 51448)  -->
<!DOCTYPE svg PUBLIC "-//W3C//DTD SVG 1.1//EN" "http://www.w3.org/Graphics/SVG/1.1/DTD/svg11.dtd" [
	<!ENTITY ns_svg "http://www.w3.org/2000/svg">
	<!ENTITY ns_xlink "http://www.w3.org/1999/xlink">
]>
<svg  version="1.1" xmlns="&ns_svg;" xmlns:xlink="&ns_xlink;" width="986.978" height="388.046" viewBox="0 0 986.978 388.046"
	 overflow="visible" enable-background="new 0 0 986.978 388.046" xml:space="preserve">
<g id="Layer_1">
	<g>
		<path fill="#FFFFFF" d="M68.78,173.626V213.2l255.25,131.476V287.12c0,0-158.758-79.583-186.935-93.707
			c28.176-14.124,186.935-93.706,186.935-93.706V42.151L68.78,173.626z"/>
		<polygon fill="#FFFFFF" points="481.568,-0.021 332.417,387.557 387.807,387.557 526.492,21.979 		"/>
		<path fill="#FFFFFF" d="M544.842,99.728c0,0,159.896,79.542,188.327,93.685c-28.431,14.143-188.327,93.686-188.327,93.686v57.546
			l255.25-130.926v-40.611L544.842,42.182V99.728z"/>
		<path display="none" fill="#FFFFFF" d="M714.875-59.196c0,0,33.729,175.375,39.727,206.557
			c-28.487-14.028-188.706-92.922-188.706-92.922l-45.755,34.9l258.902,123.547l32.289-24.63L760.631-94.096L714.875-59.196z"/>
	</g>
</g>
<g id="Layer_3">
	<polygon display="none" fill="#FFFFFF" points="83.221,141.693 -22.582,193.136 83.196,245.201 783.775,245.201 889.571,193.347 
		783.766,141.693 	"/>
	<polygon fill="#850009" points="0.174,193.191 85.523,235.201 781.456,235.201 866.813,193.365 781.456,151.693 85.523,151.693 	
		"/>
	<g display="none">
		<g display="inline">
			<path d="M73.319,197.311c-13.207,0.013-18.948,21.042-21.041,26.415c-1.823,4.68-2.952,9.629-4.083,14.58
				c-1.129,4.949-2.325,10.072-4.148,14.752c-6.819,17.504-25.431,20.971-40.857,21.625l-3.903,0.168l-0.512-11.428l3.347-0.143
				c10.405-0.447,26.522-6.043,30.304-15.748c1.621-4.16,2.653-8.35,3.648-12.951c0.926-4.432,2.095-8.967,3.918-13.645
				c4.147-11.162,11.317-28.114,13.377-28.052v-0.371c-1.392,0.074-9.614-15.331-14.815-26.04
				c-2.266-4.482-3.779-8.718-5.212-13.205c-1.349-4.32-2.864-8.556-4.794-12.374c-4.527-8.966-15.53-11.294-26.503-11.033
				l-3.347,0.078l-0.313-11.435l3.906-0.091c15.806-0.364,29.157-0.243,36.874,15.032c2.349,4.649,3.949,9.466,5.633,14.451
				c1.686,4.984,3.369,9.968,5.716,14.616c2.938,5.812,9.591,25.322,22.799,25.309L73.319,197.311z"/>
		</g>
	</g>
	<path fill="#850009" d="M819.037,151.392l39.958,19.354l127.914,0.068l-14.482-28.148c0,0-97.667,1.03-115.002,1.212
		c10.226-13.998,67.842-92.868,67.842-92.868l-14.481-28.146L819.037,151.392z"/>
	<path display="none" fill="#850009" d="M819.58,148.107l39.725,19.829c0,0,31.302-58.834,48.183-88.56
		c18.088-31.855,37.726-28.884,74.854-20.516c-7.788-24.572,7.173-36.742,7.173-36.742c-18.857-0.247-40.719,1.315-61.856,10.738
		c-21.139,9.424-34.363,26.021-46.299,46.202C868.917,100.09,819.58,148.107,819.58,148.107z"/>
	<path display="none" fill="#850009" d="M850.995,163.745l-39.958-19.354c0,0,69.839-67.528,119.527-31.411
		c29.98,21.048,42.305,4.38,72.279-19.071c-0.391,32.703,11.974,37.933,11.974,37.933c-16.937,8.293-32.878,10.924-56.016,11.454
		c-23.137,0.53-23.329-1.593-49.148-11.317C889.594,124.423,855.524,158.135,850.995,163.745z"/>
</g>
</svg>
